<svg width="1200" height="720" viewBox="0 0 1200 720" fill="none" xmlns="http://www.w3.org/2000/svg">
  <rect width="1200" height="720" rx="36" fill="#F8FAFC"/>
  <rect x="32" y="32" width="1136" height="656" rx="28" fill="white"/>
  <text x="72" y="110" fill="#0F172A" font-family="Inter, Noto Sans JP, sans-serif" font-size="40" font-weight="800">出力精度</text>
  <text x="72" y="152" fill="#64748B" font-family="Inter, Noto Sans JP, sans-serif" font-size="22" font-weight="500">プレビューとPNG書き出しを同じ描画ロジックで処理し、視覚差を減らす設計</text>

  <rect x="72" y="210" width="310" height="330" rx="28" fill="#EEF2FF"/>
  <text x="104" y="262" fill="#4F46E5" font-family="Inter, Noto Sans JP, sans-serif" font-size="22" font-weight="800">編集入力</text>
  <text x="104" y="305" fill="#0F172A" font-family="Inter, Noto Sans JP, sans-serif" font-size="32" font-weight="800">文字列 / 色 / 縁取り</text>
  <text x="104" y="352" fill="#334155" font-family="Inter, Noto Sans JP, sans-serif" font-size="22" font-weight="500">同一の設定オブジェクトを</text>
  <text x="104" y="386" fill="#334155" font-family="Inter, Noto Sans JP, sans-serif" font-size="22" font-weight="500">プレビューと書き出しで共有</text>
  <rect x="104" y="428" width="186" height="62" rx="18" fill="#4F46E5"/>
  <text x="140" y="468" fill="white" font-family="Inter, Noto Sans JP, sans-serif" font-size="22" font-weight="800">EmojiConfig</text>

  <path d="M430 374H560" stroke="#4F46E5" stroke-width="16" stroke-linecap="round"/>
  <path d="M537 336L579 374L537 412" stroke="#4F46E5" stroke-width="16" stroke-linecap="round" stroke-linejoin="round"/>

  <rect x="596" y="210" width="250" height="330" rx="28" fill="#FFF7ED"/>
  <text x="628" y="262" fill="#EA580C" font-family="Inter, Noto Sans JP, sans-serif" font-size="22" font-weight="800">共通描画ロジック</text>
  <text x="628" y="320" fill="#0F172A" font-family="Inter, Noto Sans JP, sans-serif" font-size="26" font-weight="800">renderEmojiToCanvas()</text>
  <text x="628" y="362" fill="#334155" font-family="Inter, Noto Sans JP, sans-serif" font-size="22" font-weight="500">フォント待機</text>
  <text x="628" y="394" fill="#334155" font-family="Inter, Noto Sans JP, sans-serif" font-size="22" font-weight="500">文字配置</text>
  <text x="628" y="426" fill="#334155" font-family="Inter, Noto Sans JP, sans-serif" font-size="22" font-weight="500">縁取り順序</text>
  <text x="628" y="458" fill="#334155" font-family="Inter, Noto Sans JP, sans-serif" font-size="22" font-weight="500">塗り順序</text>

  <path d="M886 374H1016" stroke="#EA580C" stroke-width="16" stroke-linecap="round"/>
  <path d="M993 336L1035 374L993 412" stroke="#EA580C" stroke-width="16" stroke-linecap="round" stroke-linejoin="round"/>

  <rect x="988" y="210" width="140" height="150" rx="28" fill="#F8FAFC" stroke="#CBD5E1" stroke-width="2"/>
  <text x="1018" y="255" fill="#475569" font-family="Inter, Noto Sans JP, sans-serif" font-size="18" font-weight="800">プレビュー</text>
  <rect x="1018" y="278" width="80" height="52" rx="14" fill="white"/>
  <text x="1040" y="310" fill="#111827" font-family="Noto Sans JP, sans-serif" font-size="26" font-weight="900">あり</text>

  <rect x="988" y="390" width="140" height="150" rx="28" fill="#F8FAFC" stroke="#CBD5E1" stroke-width="2"/>
  <text x="1011" y="435" fill="#475569" font-family="Inter, Noto Sans JP, sans-serif" font-size="18" font-weight="800">PNG書き出し</text>
  <rect x="1018" y="458" width="80" height="52" rx="14" fill="white"/>
  <text x="1040" y="490" fill="#111827" font-family="Noto Sans JP, sans-serif" font-size="26" font-weight="900">あり</text>

  <rect x="72" y="582" width="1056" height="64" rx="20" fill="#F1F5F9"/>
  <text x="102" y="623" fill="#0F172A" font-family="Inter, Noto Sans JP, sans-serif" font-size="22" font-weight="700">研究上の意味:</text>
  <text x="254" y="623" fill="#334155" font-family="Inter, Noto Sans JP, sans-serif" font-size="22" font-weight="500">操作中の見えと最終出力の差を抑えることで、視認性評価の妥当性をUI上で担保できる。</text>
</svg>
